<?xml version="1.0" encoding="UTF-8" standalone="no"?>
<svg
   xmlns:dc="http://purl.org/dc/elements/1.1/"
   xmlns:cc="http://creativecommons.org/ns#"
   xmlns:rdf="http://www.w3.org/1999/02/22-rdf-syntax-ns#"
   xmlns:svg="http://www.w3.org/2000/svg"
   xmlns="http://www.w3.org/2000/svg"
   xmlns:sodipodi="http://sodipodi.sourceforge.net/DTD/sodipodi-0.dtd"
   xmlns:inkscape="http://www.inkscape.org/namespaces/inkscape"
   width="410mm"
   height="270mm"
   viewBox="0 0 410 270"
   version="1.1"
   id="svg8"
   inkscape:version="1.0.2-2 (e86c870879, 2021-01-15)"
   sodipodi:docname="ai_deploy.svg">
  <defs
     id="defs2">
    <marker
       style="overflow:visible"
       id="marker2510"
       refX="0"
       refY="0"
       orient="auto"
       inkscape:stockid="Arrow2Sstart"
       inkscape:isstock="true">
      <path
         transform="matrix(0.3,0,0,0.3,-0.69,0)"
         d="M 8.7185878,4.0337352 -2.2072895,0.01601326 8.7185884,-4.0017078 c -1.7454984,2.3720609 -1.7354408,5.6174519 -6e-7,8.035443 z"
         style="fill:#000000;fill-opacity:1;fill-rule:evenodd;stroke:#000000;stroke-width:0.625;stroke-linejoin:round;stroke-opacity:1"
         id="path2508" />
    </marker>
    <marker
       style="overflow:visible"
       id="marker2088"
       refX="0"
       refY="0"
       orient="auto"
       inkscape:stockid="Arrow2Send"
       inkscape:isstock="true">
      <path
         transform="matrix(-0.3,0,0,-0.3,0.69,0)"
         d="M 8.7185878,4.0337352 -2.2072895,0.01601326 8.7185884,-4.0017078 c -1.7454984,2.3720609 -1.7354408,5.6174519 -6e-7,8.035443 z"
         style="fill:#000000;fill-opacity:1;fill-rule:evenodd;stroke:#000000;stroke-width:0.625;stroke-linejoin:round;stroke-opacity:1"
         id="path2086" />
    </marker>
    <marker
       style="overflow:visible"
       id="marker2002"
       refX="0"
       refY="0"
       orient="auto"
       inkscape:stockid="Arrow2Send"
       inkscape:isstock="true"
       inkscape:collect="always">
      <path
         transform="matrix(-0.3,0,0,-0.3,0.69,0)"
         d="M 8.7185878,4.0337352 -2.2072895,0.01601326 8.7185884,-4.0017078 c -1.7454984,2.3720609 -1.7354408,5.6174519 -6e-7,8.035443 z"
         style="fill:#000000;fill-opacity:1;fill-rule:evenodd;stroke:#000000;stroke-width:0.625;stroke-linejoin:round;stroke-opacity:1"
         id="path2000" />
    </marker>
    <marker
       style="overflow:visible"
       id="marker1893"
       refX="0"
       refY="0"
       orient="auto"
       inkscape:stockid="Arrow2Send"
       inkscape:isstock="true"
       inkscape:collect="always">
      <path
         transform="matrix(-0.3,0,0,-0.3,0.69,0)"
         d="M 8.7185878,4.0337352 -2.2072895,0.01601326 8.7185884,-4.0017078 c -1.7454984,2.3720609 -1.7354408,5.6174519 -6e-7,8.035443 z"
         style="fill:#000000;fill-opacity:1;fill-rule:evenodd;stroke:#000000;stroke-width:0.625;stroke-linejoin:round;stroke-opacity:1"
         id="path1891" />
    </marker>
    <marker
       style="overflow:visible"
       id="Arrow2Send"
       refX="0"
       refY="0"
       orient="auto"
       inkscape:stockid="Arrow2Send"
       inkscape:isstock="true"
       inkscape:collect="always">
      <path
         transform="matrix(-0.3,0,0,-0.3,0.69,0)"
         d="M 8.7185878,4.0337352 -2.2072895,0.01601326 8.7185884,-4.0017078 c -1.7454984,2.3720609 -1.7354408,5.6174519 -6e-7,8.035443 z"
         style="fill:#000000;fill-opacity:1;fill-rule:evenodd;stroke:#000000;stroke-width:0.625;stroke-linejoin:round;stroke-opacity:1"
         id="path1436" />
    </marker>
    <marker
       style="overflow:visible"
       id="marker1791"
       refX="0"
       refY="0"
       orient="auto"
       inkscape:stockid="Arrow2Sstart"
       inkscape:isstock="true">
      <path
         transform="matrix(0.3,0,0,0.3,-0.69,0)"
         d="M 8.7185878,4.0337352 -2.2072895,0.01601326 8.7185884,-4.0017078 c -1.7454984,2.3720609 -1.7354408,5.6174519 -6e-7,8.035443 z"
         style="fill:#000000;fill-opacity:1;fill-rule:evenodd;stroke:#000000;stroke-width:0.625;stroke-linejoin:round;stroke-opacity:1"
         id="path1789" />
    </marker>
    <marker
       style="overflow:visible"
       id="Arrow2Sstart"
       refX="0"
       refY="0"
       orient="auto"
       inkscape:stockid="Arrow2Sstart"
       inkscape:isstock="true"
       inkscape:collect="always">
      <path
         transform="matrix(0.3,0,0,0.3,-0.69,0)"
         d="M 8.7185878,4.0337352 -2.2072895,0.01601326 8.7185884,-4.0017078 c -1.7454984,2.3720609 -1.7354408,5.6174519 -6e-7,8.035443 z"
         style="fill:#000000;fill-opacity:1;fill-rule:evenodd;stroke:#000000;stroke-width:0.625;stroke-linejoin:round;stroke-opacity:1"
         id="path1433" />
    </marker>
    <marker
       style="overflow:visible"
       id="Arrow1Lstart"
       refX="0"
       refY="0"
       orient="auto"
       inkscape:stockid="Arrow1Lstart"
       inkscape:isstock="true">
      <path
         transform="matrix(0.8,0,0,0.8,10,0)"
         style="fill:#000000;fill-opacity:1;fill-rule:evenodd;stroke:#000000;stroke-width:1pt;stroke-opacity:1"
         d="M 0,0 5,-5 -12.5,0 5,5 Z"
         id="path1403" />
    </marker>
    <marker
       style="overflow:visible"
       id="Arrow1Lend"
       refX="0"
       refY="0"
       orient="auto"
       inkscape:stockid="Arrow1Lend"
       inkscape:isstock="true">
      <path
         transform="matrix(-0.8,0,0,-0.8,-10,0)"
         style="fill:#000000;fill-opacity:1;fill-rule:evenodd;stroke:#000000;stroke-width:1pt;stroke-opacity:1"
         d="M 0,0 5,-5 -12.5,0 5,5 Z"
         id="path1406" />
    </marker>
    <linearGradient
       x1="0"
       y1="40"
       x2="40"
       y2="0"
       id="Arch_Amazon-Route-53_32_svg__a"
       gradientUnits="userSpaceOnUse">
      <stop
         stop-color="#4D27A8"
         offset="0%"
         id="stop852" />
      <stop
         stop-color="#A166FF"
         offset="100%"
         id="stop854" />
    </linearGradient>
    <linearGradient
       x1="0"
       y1="40"
       x2="40"
       y2="0"
       id="Arch_Amazon-Route-53_32_svg__a-9"
       gradientUnits="userSpaceOnUse">
      <stop
         stop-color="#4D27A8"
         offset="0%"
         id="stop902" />
      <stop
         stop-color="#A166FF"
         offset="100%"
         id="stop904" />
    </linearGradient>
    <linearGradient
       x1="0"
       y1="40"
       x2="40"
       y2="0"
       id="Arch_Amazon-S3-Standard_32_svg__a"
       gradientUnits="userSpaceOnUse">
      <stop
         stop-color="#1B660F"
         offset="0%"
         id="stop1012" />
      <stop
         stop-color="#6CAE3E"
         offset="100%"
         id="stop1014" />
    </linearGradient>
    <linearGradient
       x1="0"
       y1="40"
       x2="40"
       y2="0"
       id="Arch_Amazon-ElastiCache_32_svg__a"
       gradientUnits="userSpaceOnUse">
      <stop
         stop-color="#2E27AD"
         offset="0%"
         id="stop1062" />
      <stop
         stop-color="#527FFF"
         offset="100%"
         id="stop1064" />
    </linearGradient>
    <linearGradient
       x1="0"
       y1="40"
       x2="40"
       y2="0"
       id="Arch_AWS-Lambda_32_svg__a"
       gradientUnits="userSpaceOnUse">
      <stop
         stop-color="#C8511B"
         offset="0%"
         id="stop1112" />
      <stop
         stop-color="#F90"
         offset="100%"
         id="stop1114" />
    </linearGradient>
    <linearGradient
       x1="0"
       y1="40"
       x2="40"
       y2="0"
       id="Arch_Amazon-Elastic-Container-Registry_32_svg__a"
       gradientUnits="userSpaceOnUse">
      <stop
         stop-color="#C8511B"
         offset="0%"
         id="stop1162" />
      <stop
         stop-color="#F90"
         offset="100%"
         id="stop1164" />
    </linearGradient>
    <style
       id="style1230">.cls-1{fill:#7b42bc;fill-rule:evenodd;}</style>
    <linearGradient
       x1="0"
       y1="40"
       x2="40"
       y2="0"
       id="Arch_Amazon-Virtual-Private-Cloud_32_svg__a"
       gradientUnits="userSpaceOnUse">
      <stop
         stop-color="#4D27A8"
         offset="0%"
         id="stop2749" />
      <stop
         stop-color="#A166FF"
         offset="100%"
         id="stop2751" />
    </linearGradient>
  </defs>
  <sodipodi:namedview
     id="base"
     pagecolor="#ffffff"
     bordercolor="#666666"
     borderopacity="1.0"
     inkscape:pageopacity="1"
     inkscape:pageshadow="2"
     inkscape:zoom="0.37871985"
     inkscape:cx="801.8825"
     inkscape:cy="673.2472"
     inkscape:document-units="mm"
     inkscape:current-layer="layer1"
     inkscape:document-rotation="0"
     showgrid="false"
     inkscape:window-width="1431"
     inkscape:window-height="977"
     inkscape:window-x="128"
     inkscape:window-y="126"
     inkscape:window-maximized="0" />
  <metadata
     id="metadata5">
    <rdf:RDF>
      <cc:Work
         rdf:about="">
        <dc:format>image/svg+xml</dc:format>
        <dc:type
           rdf:resource="http://purl.org/dc/dcmitype/StillImage" />
        <dc:title></dc:title>
      </cc:Work>
    </rdf:RDF>
  </metadata>
  <g
     inkscape:label="Layer 1"
     inkscape:groupmode="layer"
     id="layer1"
     transform="translate(138.57468,55.273311)">
    <g
       id="g2672"
       transform="matrix(0.93288208,0,0,0.93288208,-4.4104658,-0.91532772)">
      <g
         fill="none"
         fill-rule="evenodd"
         id="g863"
         transform="matrix(0.75,0,0,0.75,-122.83787,101.84028)">
        <path
           d="M 0,0 H 40 V 40 H 0 Z"
           fill="url(#Arch_Amazon-Route-53_32_svg__a)"
           id="path859"
           style="fill:url(#Arch_Amazon-Route-53_32_svg__a)" />
        <path
           d="m 24.024,20.314 c 0.343,0.317 0.514,0.74 0.514,1.272 0,0.58 -0.208,1.042 -0.624,1.388 -0.416,0.345 -0.977,0.518 -1.68,0.518 a 4.112,4.112 0 0 1 -1.647,-0.354 v -0.71 c 0.643,0.214 1.193,0.32 1.648,0.32 0.448,0 0.794,-0.101 1.036,-0.302 0.242,-0.2 0.363,-0.488 0.363,-0.86 0,-0.715 -0.452,-1.072 -1.355,-1.072 a 8.13,8.13 0 0 0 -0.842,0.044 v -0.585 l 1.86,-2.03 h -2.622 v -0.726 h 3.607 v 0.7 l -1.826,1.932 a 0.447,0.447 0 0 1 0.089,-0.009 h 0.088 c 0.584,0 1.048,0.159 1.391,0.474 M 18.877,20.16 c 0.359,0.336 0.54,0.8 0.54,1.39 0,0.58 -0.21,1.049 -0.63,1.405 -0.42,0.358 -0.972,0.537 -1.656,0.537 a 4.09,4.09 0 0 1 -1.692,-0.354 v -0.71 c 0.655,0.214 1.216,0.32 1.683,0.32 0.448,0 0.793,-0.102 1.032,-0.306 0.239,-0.204 0.36,-0.498 0.36,-0.882 0,-0.42 -0.113,-0.725 -0.338,-0.913 -0.224,-0.189 -0.59,-0.284 -1.099,-0.284 -0.366,0 -0.823,0.03 -1.373,0.09 v -0.587 l 0.169,-2.65 h 3.233 v 0.727 h -2.489 l -0.116,1.8 c 0.326,-0.06 0.618,-0.09 0.878,-0.09 0.638,0 1.138,0.17 1.498,0.507 m 6.653,6.462 c -2.242,0.403 -4.207,1.313 -5.53,2.059 -1.323,-0.746 -3.288,-1.656 -5.53,-2.06 -0.627,-0.112 -3.755,-0.764 -3.755,-2.558 0,-0.836 0.301,-1.392 0.877,-2.385 0.696,-1.2 1.562,-2.693 1.562,-4.848 0,-1.528 -0.399,-2.996 -1.187,-4.368 l 0.25,-0.306 c 2.61,1.293 5.533,1.118 7.783,-0.304 2.25,1.421 5.173,1.597 7.783,0.304 l 0.25,0.306 c -0.788,1.372 -1.188,2.84 -1.188,4.368 0,2.155 0.866,3.648 1.563,4.848 0.576,0.993 0.876,1.549 0.876,2.385 0,1.794 -3.127,2.446 -3.754,2.559 m 2.312,-9.792 c 0,-1.454 0.41,-2.849 1.22,-4.146 a 0.502,0.502 0 0 0 -0.036,-0.58 L 28.3,11.211 a 0.497,0.497 0 0 0 -0.63,-0.123 c -1.134,0.627 -2.319,0.945 -3.518,0.945 -1.448,0 -2.714,-0.39 -3.868,-1.19 a 0.502,0.502 0 0 0 -0.568,0 c -1.155,0.8 -2.42,1.19 -3.868,1.19 -1.2,0 -2.384,-0.318 -3.52,-0.945 A 0.495,0.495 0 0 0 11.7,11.211 l -0.726,0.893 a 0.5,0.5 0 0 0 -0.036,0.58 c 0.809,1.297 1.219,2.692 1.219,4.146 0,1.887 -0.791,3.25 -1.428,4.347 -0.626,1.08 -1.011,1.798 -1.011,2.886 0,2.524 3.502,3.348 4.575,3.54 2.246,0.404 4.207,1.356 5.456,2.084 a 0.493,0.493 0 0 0 0.502,0 c 1.25,-0.728 3.21,-1.68 5.455,-2.083 1.074,-0.193 4.575,-1.017 4.575,-3.541 0,-1.088 -0.384,-1.806 -1.01,-2.886 -0.637,-1.096 -1.429,-2.46 -1.429,-4.347 M 26.01,29.297 c -2.822,0.507 -5.19,2.016 -6.01,2.588 -0.82,-0.572 -3.188,-2.08 -6.01,-2.588 -1.406,-0.252 -5.992,-1.376 -5.992,-5.234 0,-1.606 0.631,-2.696 1.244,-3.75 0.587,-1.013 1.195,-2.06 1.195,-3.483 0,-2.217 -1.265,-3.791 -1.913,-4.452 0.676,-0.821 2.314,-2.818 3.147,-3.89 1.263,1.18 2.728,1.824 4.177,1.824 1.61,0 2.942,-0.65 4.152,-2.036 1.21,1.387 2.543,2.036 4.152,2.036 1.449,0 2.914,-0.643 4.176,-1.824 0.833,1.072 2.472,3.069 3.148,3.89 -0.649,0.66 -1.913,2.235 -1.913,4.452 0,1.423 0.608,2.47 1.195,3.483 0.612,1.054 1.244,2.144 1.244,3.75 0,3.858 -4.587,4.982 -5.992,5.234 m 5.611,-9.485 c -0.57,-0.98 -1.06,-1.828 -1.06,-2.982 0,-2.43 1.892,-4.004 1.912,-4.02 a 0.503,0.503 0 0 0 0.07,-0.705 C 32.513,12.068 29.477,8.389 28.784,7.437 A 0.497,0.497 0 0 0 28.016,7.39 c -1.16,1.24 -2.532,1.924 -3.864,1.924 -1.471,0 -2.63,-0.656 -3.756,-2.128 a 0.516,0.516 0 0 0 -0.793,0 c -1.126,1.472 -2.285,2.128 -3.755,2.128 -1.332,0 -2.704,-0.683 -3.864,-1.924 a 0.497,0.497 0 0 0 -0.768,0.047 c -0.693,0.952 -3.728,4.63 -3.76,4.668 a 0.502,0.502 0 0 0 0.072,0.705 c 0.019,0.016 1.911,1.575 1.911,4.02 0,1.154 -0.49,2.001 -1.061,2.982 C 7.732,20.926 7,22.188 7,24.062 c 0,3.127 2.546,5.451 6.813,6.217 3.19,0.574 5.857,2.597 5.883,2.617 a 0.499,0.499 0 0 0 0.608,0 c 0.026,-0.02 2.694,-2.043 5.883,-2.617 C 30.453,29.513 33,27.19 33,24.063 c 0,-1.875 -0.732,-3.137 -1.379,-4.25"
           fill="#ffffff"
           id="path861" />
      </g>
      <text
         xml:space="preserve"
         style="font-size:8.46667px;line-height:1.25;font-family:Bahnschrift;-inkscape-font-specification:Bahnschrift;text-align:center;text-anchor:middle;stroke-width:0.264583"
         x="-107.93261"
         y="84.697495"
         id="text879"><tspan
           sodipodi:role="line"
           id="tspan877"
           x="-107.93261"
           y="84.697495"
           style="font-size:8.46667px;text-align:center;text-anchor:middle;stroke-width:0.264583">Registrar + DNS:</tspan><tspan
           sodipodi:role="line"
           x="-107.93261"
           y="95.28083"
           style="font-size:8.46667px;text-align:center;text-anchor:middle;stroke-width:0.264583"
           id="tspan881">AWS Route53</tspan></text>
    </g>
    <g
       id="g1365"
       transform="matrix(0.93288208,0,0,0.93288208,-23.250026,19.802508)">
      <g
         fill="none"
         fill-rule="evenodd"
         id="g976"
         transform="matrix(0.75,0,0,0.75,-30.984904,78.803519)">
        <path
           d="M 0,0 H 40 V 40 H 0 Z"
           fill="url(#Arch_Amazon-CloudFront_32_svg__a)"
           id="path972"
           style="fill:url(#Arch_Amazon-Route-53_32_svg__a-9)" />
        <path
           d="m 28,26.497 c 0,-0.828 -0.673,-1.5 -1.5,-1.5 -0.827,0 -1.5,0.672 -1.5,1.5 0,0.827 0.673,1.5 1.5,1.5 0.827,0 1.5,-0.673 1.5,-1.5 z m 1,0 a 2.503,2.503 0 0 1 -2.5,2.5 2.503,2.503 0 0 1 -2.5,-2.5 2.503,2.503 0 0 1 2.5,-2.501 c 1.379,0 2.5,1.122 2.5,2.5 z M 15,18.493 c 0,-0.827 -0.673,-1.5 -1.5,-1.5 -0.827,0 -1.5,0.673 -1.5,1.5 0,0.828 0.673,1.501 1.5,1.501 0.827,0 1.5,-0.673 1.5,-1.5 z m 1,0 a 2.503,2.503 0 0 1 -2.5,2.502 2.503,2.503 0 0 1 -2.5,-2.502 2.503,2.503 0 0 1 2.5,-2.5 c 1.379,0 2.5,1.122 2.5,2.5 z m 4,-8.003 c 0,0.827 0.673,1.5 1.5,1.5 0.827,0 1.5,-0.673 1.5,-1.5 0,-0.827 -0.673,-1.5 -1.5,-1.5 -0.827,0 -1.5,0.673 -1.5,1.5 z m -1,0 a 2.503,2.503 0 0 1 2.5,-2.501 c 1.379,0 2.5,1.122 2.5,2.501 a 2.503,2.503 0 0 1 -2.5,2.501 2.503,2.503 0 0 1 -2.5,-2.5 z m 14,9.504 c 0,-4.638 -2.485,-8.93 -6.494,-11.25 -0.721,0.145 -1.416,0.344 -2.28,0.657 l -0.34,-0.94 A 19.87,19.87 0 0 1 25.119,8.056 12.95,12.95 0 0 0 20,6.99 c -0.844,0 -1.675,0.087 -2.487,0.246 0.587,0.343 1.108,0.686 1.615,1.071 l -0.604,0.797 c -0.715,-0.543 -1.457,-1 -2.426,-1.51 a 13.016,13.016 0 0 0 -9.007,10.963 17.602,17.602 0 0 1 3.116,-0.349 l 0.025,1 A 16.32,16.32 0 0 0 7.014,19.597 C 7.01,19.729 7,19.864 7,19.995 c 0,4.335 2.146,8.33 5.676,10.736 -0.627,-1.87 -0.95,-3.638 -0.95,-5.36 0,-0.985 0.169,-1.793 0.347,-2.649 l 0.124,-0.602 0.981,0.193 -0.125,0.614 c -0.176,0.839 -0.327,1.562 -0.327,2.443 0,1.952 0.432,3.973 1.302,6.166 a 12.844,12.844 0 0 0 9.978,0.821 c 0.502,-0.99 0.875,-1.927 1.189,-3.009 l 0.961,0.28 c -0.228,0.787 -0.49,1.5 -0.801,2.21 0.804,-0.361 1.564,-0.81 2.279,-1.33 -0.173,-0.426 -0.35,-0.85 -0.554,-1.26 l 0.895,-0.446 c 0.171,0.343 0.313,0.701 0.463,1.054 C 31.335,27.377 33,23.83 33,19.995 Z m 1,0 c 0,4.365 -1.982,8.403 -5.44,11.079 a 13.69,13.69 0 0 1 -4.042,2.173 C 23.078,33.746 21.557,34 20,34 17.7,34 15.416,33.427 13.394,32.341 A 13.98,13.98 0 0 1 6.029,19.15 C 6.37,13.303 10.377,8.245 16,6.57 19.527,5.507 23.589,5.938 26.842,7.778 A 14.015,14.015 0 0 1 34,19.994 Z M 18.657,12.722 17.999,11.969 c -1.12,0.978 -1.992,2.017 -3.01,3.586 l 0.838,0.544 c 0.965,-1.485 1.784,-2.464 2.83,-3.377 z m -1.845,7.431 c 2.296,0.788 4.299,2.047 6.305,3.96 l 0.69,-0.722 c -2.113,-2.018 -4.233,-3.347 -6.67,-4.184 z m 7.011,-6.828 c 1.876,2.862 2.933,6.005 3.14,9.34 l -0.998,0.061 C 25.769,19.568 24.767,16.59 22.987,13.874 Z"
           fill="#ffffff"
           id="path974" />
      </g>
      <text
         xml:space="preserve"
         style="font-size:8.46667px;line-height:1.25;font-family:Bahnschrift;-inkscape-font-specification:Bahnschrift;text-align:center;text-anchor:middle;stroke-width:0.264583"
         x="-16.079645"
         y="63.265743"
         id="text989"><tspan
           sodipodi:role="line"
           id="tspan987"
           x="-16.079645"
           y="63.265743"
           style="font-size:8.46667px;text-align:center;text-anchor:middle;stroke-width:0.264583">Edge Distribution:</tspan><tspan
           sodipodi:role="line"
           x="-16.079645"
           y="73.849083"
           style="font-size:8.46667px;text-align:center;text-anchor:middle;stroke-width:0.264583"
           id="tspan991">AWS CloudFront</tspan></text>
    </g>
    <g
       id="g1373"
       transform="matrix(0.93288208,0,0,0.93288208,-1.4485651,16.951363)">
      <g
         fill="none"
         fill-rule="evenodd"
         id="g1023"
         transform="matrix(0.75,0,0,0.75,40.405756,81.65383)">
        <path
           d="M 0,0 H 40 V 40 H 0 Z"
           fill="url(#Arch_Amazon-S3-Standard_32_svg__a)"
           id="path1019"
           style="fill:url(#Arch_Amazon-S3-Standard_32_svg__a)" />
        <path
           d="m 30.074,22.671 0.2,-1.301 c 1.703,1.016 1.735,1.444 1.732,1.46 -0.004,0.003 -0.308,0.24 -1.932,-0.159 z M 19.889,18.938 a 0.995,0.995 0 0 1 -0.992,0.994 0.995,0.995 0 0 1 0,-1.99 c 0.547,0 0.992,0.448 0.992,0.996 z m 7.869,12.33 c 0,0.123 -0.495,0.31 -0.93,0.478 l -0.445,0.17 c -0.475,0.189 -1.037,0.359 -1.669,0.504 -1.576,0.366 -3.75,0.585 -5.817,0.585 -5.503,0 -8.435,-1.009 -8.439,-1.798 L 8.256,13.57 c 1.899,1.452 5.8,2.382 10.641,2.382 4.63,0 9.364,-0.897 11.584,-2.472 l -1.366,8.92 c -2.871,-0.874 -6.392,-2.56 -8.132,-3.398 l -0.105,-0.05 0.002,-0.015 c 0,-1.098 -0.89,-1.99 -1.983,-1.99 a 1.988,1.988 0 0 0 -1.983,1.99 c 0,1.097 0.89,1.99 1.983,1.99 0.733,0 1.367,-0.407 1.71,-1.002 1.806,0.868 5.41,2.591 8.356,3.468 l -1.205,7.874 z M 18.898,7.995 c 6.676,0 11.857,1.86 11.894,3.465 l -0.024,0.148 c -0.27,1.579 -5.352,3.35 -11.87,3.35 -6.388,0 -10.71,-1.725 -10.89,-3.375 L 7.993,11.463 C 8.016,9.785 12.39,7.995 18.897,7.995 Z m 11.538,12.318 1.344,-8.76 c 10e-4,-0.026 0.006,-0.05 0.006,-0.076 C 31.786,8.674 25.233,7 18.897,7 12.003,7 7,8.883 7,11.477 l 0.003,0.061 2.468,19.73 c 0,2.6 7.852,2.732 9.426,2.732 2.137,0 4.394,-0.228 6.04,-0.61 a 12.74,12.74 0 0 0 1.81,-0.548 l 0.432,-0.167 c 0.844,-0.321 1.57,-0.598 1.564,-1.331 l 1.18,-7.684 c 0.655,0.158 1.197,0.24 1.63,0.24 0.58,-10e-4 0.973,-0.143 1.21,-0.428 a 0.982,0.982 0 0 0 0.219,-0.832 c -0.127,-0.681 -0.923,-1.405 -2.546,-2.327 z"
           fill="#ffffff"
           id="path1021" />
      </g>
      <text
         xml:space="preserve"
         style="font-size:8.46667px;line-height:1.25;font-family:Bahnschrift;-inkscape-font-specification:Bahnschrift;text-align:center;text-anchor:middle;stroke-width:0.264583"
         x="55.466045"
         y="66.579659"
         id="text1039"><tspan
           sodipodi:role="line"
           id="tspan1037"
           x="55.466045"
           y="66.579659"
           style="font-size:8.46667px;text-align:center;text-anchor:middle;stroke-width:0.264583">Static Site Hosting:</tspan><tspan
           sodipodi:role="line"
           x="55.466045"
           y="77.162994"
           style="font-size:8.46667px;text-align:center;text-anchor:middle;stroke-width:0.264583"
           id="tspan1041">AWS S3</tspan></text>
    </g>
    <g
       id="g1397"
       transform="matrix(0.93288208,0,0,0.93288208,-13.921195,-39.612803)">
      <g
         fill="none"
         fill-rule="evenodd"
         id="g1073"
         transform="matrix(0.75,0,0,0.75,134.54124,196.65841)">
        <path
           d="M 0,0 H 40 V 40 H 0 Z"
           fill="url(#Arch_Amazon-ElastiCache_32_svg__a)"
           id="path1069"
           style="fill:url(#Arch_Amazon-ElastiCache_32_svg__a)" />
        <path
           d="m 25,22.036 v -2.904 c -1.081,0.705 -2.872,1.15 -4.984,1.15 -2.228,0 -3.968,-0.4 -5.016,-1.078 v 2.832 c 0,0.728 1.918,1.514 5.016,1.514 3.12,0 4.984,-0.77 4.984,-1.514 z m 0,4.12 v -2.623 c -1.017,0.638 -2.755,1.01 -4.984,1.01 -2.245,0 -3.995,-0.373 -5.016,-1.013 v 2.625 c 0,0.692 1.786,1.693 5.016,1.693 3.209,0 4.984,-1.001 4.984,-1.693 z m 0,3.808 v -2.242 c -1.035,0.697 -2.806,1.12 -4.984,1.12 -2.194,0 -3.976,-0.425 -5.016,-1.123 v 2.245 c 0,0.72 1.904,2.042 5.016,2.042 3.091,0 4.984,-1.321 4.984,-2.042 z M 14.903,17.504 c 0,0.877 1.912,1.783 5.113,1.783 3.101,0 5.081,-1.055 5.081,-1.782 0,-0.655 -1.766,-1.562 -5.081,-1.562 -3.167,0 -5.113,0.91 -5.113,1.562 z m 11.194,0 c 0,0.174 -0.036,0.342 -0.097,0.504 V 29.964 C 26,31.61 23.26,33 20.016,33 16.755,33 14,31.61 14,29.964 v -11.93 a 1.656,1.656 0 0 1 -0.097,-0.53 c 0,-1.755 3.168,-2.555 6.113,-2.555 3.027,0 6.081,0.79 6.081,2.556 z M 33.5,11.472 c 0.276,0 0.5,-0.222 0.5,-0.497 V 7.497 A 0.499,0.499 0 0 0 33.5,7 H 6.5 C 6.224,7 6,7.223 6,7.497 v 3.478 c 0,0.275 0.224,0.497 0.5,0.497 0.552,0 1,0.446 1,0.994 a 0.998,0.998 0 0 1 -1,0.993 c -0.276,0 -0.5,0.223 -0.5,0.497 v 9.44 c 0,0.276 0.224,0.497 0.5,0.497 H 12 V 22.9 H 9 v -0.994 h 3 V 20.912 H 8.5 c -0.276,0 -0.5,0.223 -0.5,0.497 v 1.49 H 7 V 14.39 c 0.861,-0.221 1.5,-1 1.5,-1.924 C 8.5,11.541 7.861,10.762 7,10.542 V 7.994 h 26 v 2.548 c -0.861,0.22 -1.5,1 -1.5,1.924 0,0.924 0.639,1.703 1.5,1.924 V 22.9 H 32 V 21.41 A 0.499,0.499 0 0 0 31.5,20.912 H 28 v 0.994 h 3 V 22.9 h -3 v 0.993 h 5.5 c 0.276,0 0.5,-0.221 0.5,-0.496 v -9.44 a 0.499,0.499 0 0 0 -0.5,-0.498 c -0.552,0 -1,-0.446 -1,-0.993 a 0.998,0.998 0 0 1 1,-0.994 z m -21,-1.49 h -2 c -0.276,0 -0.5,0.222 -0.5,0.496 v 7.95 c 0,0.275 0.224,0.497 0.5,0.497 H 12 v -0.994 h -1 v -6.956 h 1 v 2.981 h 1 V 10.478 A 0.499,0.499 0 0 0 12.5,9.981 Z m 15.5,7.95 v 0.993 h 1.5 c 0.276,0 0.5,-0.222 0.5,-0.497 v -7.95 A 0.499,0.499 0 0 0 29.5,9.981 h -2 c -0.276,0 -0.5,0.223 -0.5,0.497 v 3.478 h 1 v -2.981 h 1 v 6.956 h -1 z m -3,-4.97 V 10.478 A 0.499,0.499 0 0 0 24.5,9.981 h -3 c -0.276,0 -0.5,0.223 -0.5,0.497 v 2.484 h 1 v -1.987 h 2 v 1.987 z m -7,0 v -1.987 h -2 v 1.987 h -1 v -2.484 c 0,-0.274 0.224,-0.497 0.5,-0.497 h 3 c 0.276,0 0.5,0.223 0.5,0.497 v 2.484 z"
           fill="#ffffff"
           id="path1071" />
      </g>
      <text
         xml:space="preserve"
         style="font-size:8.46667px;line-height:1.25;font-family:Bahnschrift;-inkscape-font-specification:Bahnschrift;text-align:center;text-anchor:middle;stroke-width:0.264583"
         x="149.78239"
         y="237.54434"
         id="text1089"><tspan
           sodipodi:role="line"
           id="tspan1087"
           x="149.78239"
           y="237.54434"
           style="font-size:8.46667px;text-align:center;text-anchor:middle;stroke-width:0.264583">Rate-limit cache:</tspan><tspan
           sodipodi:role="line"
           x="149.78239"
           y="248.12769"
           style="font-size:8.46667px;text-align:center;text-anchor:middle;stroke-width:0.264583"
           id="tspan1091">AWS ElastiCache (Redis)</tspan></text>
    </g>
    <g
       id="g1381"
       transform="matrix(0.93288208,0,0,0.93288208,-27.323445,2.4634356)">
      <g
         fill="none"
         fill-rule="evenodd"
         id="g1123"
         transform="matrix(0.75,0,0,0.75,148.90774,96.824924)">
        <path
           d="M 0,0 H 40 V 40 H 0 Z"
           fill="url(#Arch_AWS-Lambda_32_svg__a)"
           id="path1119"
           style="fill:url(#Arch_AWS-Lambda_32_svg__a)" />
        <path
           d="M 14.386,33 H 8.27 l 6.763,-14.426 3.064,6.44 L 14.387,33 Z M 15.471,17.202 A 0.49,0.49 0 0 0 15.029,16.92 h -0.002 a 0.493,0.493 0 0 0 -0.441,0.285 l -7.538,16.08 a 0.507,0.507 0 0 0 0.028,0.482 C 7.166,33.912 7.323,34 7.491,34 h 7.206 c 0.19,0 0.363,-0.111 0.445,-0.286 l 3.944,-8.489 A 0.508,0.508 0 0 0 19.084,24.793 Z M 32.018,33 H 26.136 L 16.666,12.289 A 0.491,0.491 0 0 0 16.222,12 H 12.37 l 0.005,-5 h 7.549 l 9.424,20.71 c 0.08,0.177 0.256,0.29 0.446,0.29 h 2.224 z m 0.49,-6 h -2.4 L 20.684,6.29 A 0.492,0.492 0 0 0 20.238,6 h -8.353 a 0.496,0.496 0 0 0 -0.491,0.5 l -0.006,6 c 0,0.132 0.052,0.259 0.144,0.354 A 0.488,0.488 0 0 0 11.879,13 h 4.032 l 9.468,20.711 C 25.459,33.887 25.633,34 25.824,34 h 6.686 a 0.495,0.495 0 0 0 0.491,-0.5 v -6 c 0,-0.276 -0.219,-0.5 -0.491,-0.5 z"
           fill="#ffffff"
           id="path1121" />
      </g>
      <text
         xml:space="preserve"
         style="font-size:8.46667px;line-height:1.25;font-family:Bahnschrift;-inkscape-font-specification:Bahnschrift;text-align:center;text-anchor:middle;stroke-width:0.264583"
         x="164.05415"
         y="82.417465"
         id="text1139"><tspan
           sodipodi:role="line"
           id="tspan1137"
           x="164.05415"
           y="82.417465"
           style="font-size:8.46667px;text-align:center;text-anchor:middle;stroke-width:0.264583">AI Inference API:</tspan><tspan
           sodipodi:role="line"
           x="164.05415"
           y="93.000801"
           style="font-size:8.46667px;text-align:center;text-anchor:middle;stroke-width:0.264583"
           id="tspan1141">AWS Lambda</tspan></text>
    </g>
    <g
       id="g2722"
       transform="matrix(0.93288208,0,0,0.93288208,-4.4104658,-0.91532772)">
      <g
         fill="none"
         fill-rule="evenodd"
         id="g1173"
         transform="matrix(0.75,0,0,0.75,213.56593,100.04986)">
        <path
           d="M 0,0 H 40 V 40 H 0 Z"
           fill="url(#Arch_Amazon-Elastic-Container-Registry_32_svg__a)"
           id="path1169"
           style="fill:url(#Arch_Amazon-Elastic-Container-Registry_32_svg__a)" />
        <path
           d="M 19.404,19.006 A 0.791,0.791 0 0 0 19,19.692 V 32.875 L 9,27.19 V 14.408 L 20.253,8.012 30.22,12.858 Z M 31.455,12.843 A 0.788,0.788 0 0 0 31.031,12.155 L 20.639,7.102 A 0.807,0.807 0 0 0 19.85,7.104 L 8.404,13.61 A 0.789,0.789 0 0 0 8,14.296 v 13.007 a 0.79,0.79 0 0 0 0.402,0.685 l 10.392,5.907 C 18.918,33.965 19.057,34 19.196,34 A 0.793,0.793 0 0 0 20,33.21 V 19.803 l 11.058,-6.285 a 0.78,0.78 0 0 0 0.397,-0.676 z M 32,27.534 l -9.039,5.29 v -4.962 l 4.994,-3 0.033,-0.231 C 27.997,24.571 28,24.571 28,24.291 v -5.547 l 4,-2.274 z m 0.598,-12.083 a 0.816,0.816 0 0 0 -0.804,0 l -4.472,2.542 A 0.65,0.65 0 0 0 27,18.545 v 5.738 l -4.643,2.787 a 0.79,0.79 0 0 0 -0.396,0.683 v 5.41 c 0,0.286 0.15,0.542 0.401,0.685 0.123,0.07 0.262,0.106 0.4,0.106 a 0.84,0.84 0 0 0 0.411,-0.109 l 9.422,-5.514 A 0.79,0.79 0 0 0 33,27.644 V 16.135 a 0.781,0.781 0 0 0 -0.402,-0.684 z"
           fill="#ffffff"
           id="path1171" />
      </g>
      <text
         xml:space="preserve"
         style="font-size:8.46667px;line-height:1.25;font-family:Bahnschrift;-inkscape-font-specification:Bahnschrift;text-align:center;text-anchor:middle;stroke-width:0.264583"
         x="228.53148"
         y="85.958748"
         id="text1189"><tspan
           sodipodi:role="line"
           id="tspan1187"
           x="228.53148"
           y="85.958748"
           style="font-size:8.46667px;text-align:center;text-anchor:middle;stroke-width:0.264583">Lambda Container:</tspan><tspan
           sodipodi:role="line"
           x="228.53148"
           y="96.542084"
           style="font-size:8.46667px;text-align:center;text-anchor:middle;stroke-width:0.264583"
           id="tspan1191">AWS ECR</tspan></text>
    </g>
    <g
       id="g2658"
       transform="matrix(0.93288208,0,0,0.93288208,-4.4104658,-0.42167762)">
      <g
         id="g1300"
         transform="matrix(0.90708663,0,0,0.90708663,69.51401,83.123897)">
        <polygon
           class="cls-1"
           points="102.58,91.75 102.58,46.91 141.41,69.33 141.41,114.16 "
           id="polygon1254"
           transform="matrix(0.26458333,0,0,0.26458333,3.203841,-104.54749)" />
        <polygon
           class="cls-1"
           points="184.5,46.91 145.67,69.33 145.67,114.16 184.5,91.75 "
           id="polygon1256"
           transform="matrix(0.26458333,0,0,0.26458333,3.203841,-104.54749)" />
        <polygon
           class="cls-1"
           points="98.33,44.3 59.5,21.88 59.5,66.72 98.33,89.14 "
           id="polygon1258"
           transform="matrix(0.26458333,0,0,0.26458333,3.203841,-104.54749)" />
        <polygon
           class="cls-1"
           points="102.58,96.66 102.58,141.49 141.41,163.91 141.41,119.38 141.41,119.08 "
           id="polygon1260"
           transform="matrix(0.26458333,0,0,0.26458333,3.203841,-104.54749)" />
      </g>
      <text
         xml:space="preserve"
         style="font-size:8.46667px;line-height:1.25;font-family:Bahnschrift;-inkscape-font-specification:Bahnschrift;stroke-width:0.264583"
         x="163.27798"
         y="8.6799288"
         id="text1304"><tspan
           sodipodi:role="line"
           id="tspan1302"
           x="163.27798"
           y="8.6799288"
           style="font-size:8.46667px;text-align:center;text-anchor:middle;stroke-width:0.264583">Infrastructure as Code:</tspan><tspan
           sodipodi:role="line"
           x="163.27798"
           y="19.263266"
           style="font-size:8.46667px;text-align:center;text-anchor:middle;stroke-width:0.264583"
           id="tspan1306">Terraform</tspan></text>
    </g>
    <g
       id="g2648"
       transform="matrix(0.93288208,0,0,0.93288208,-4.4104658,-0.91532772)">
      <text
         xml:space="preserve"
         style="font-size:8.46667px;line-height:1.25;font-family:Bahnschrift;-inkscape-font-specification:Bahnschrift;stroke-width:0.264583"
         x="163.34"
         y="-42.428349"
         id="text1310"><tspan
           sodipodi:role="line"
           id="tspan1308"
           x="163.34"
           y="-42.428349"
           style="font-size:8.46667px;text-align:center;text-anchor:middle;stroke-width:0.264583">Continuous Deployment:</tspan><tspan
           sodipodi:role="line"
           x="163.34"
           y="-31.845011"
           style="font-size:8.46667px;text-align:center;text-anchor:middle;stroke-width:0.264583"
           id="tspan1312">GitHub Actions</tspan></text>
      <path
         fill-rule="evenodd"
         clip-rule="evenodd"
         d="m 99.475407,-55.273311 c -8.30151,0 -15.01246,6.760435 -15.01246,15.124015 0,6.685456 4.29994,12.344555 10.2651,14.347488 0.74581,0.150573 1.01898,-0.325423 1.01898,-0.725825 0,-0.350622 -0.0246,-1.552442 -0.0246,-2.804659 -4.17611,0.901596 -5.04574,-1.802886 -5.04574,-1.802886 -0.67113,-1.752796 -1.66553,-2.203287 -1.66553,-2.203287 -1.36684,-0.926487 0.0995,-0.926487 0.0995,-0.926487 1.51617,0.100173 2.31176,1.552442 2.31176,1.552442 1.34195,2.303465 3.50436,1.652619 4.3743,1.25191 0.12416,-0.976576 0.52209,-1.65262 0.94462,-2.02813 -3.33073,-0.350622 -6.8351,-1.65262 -6.8351,-7.461984 0,-1.65262 0.59615,-3.004706 1.54076,-4.056262 -0.14903,-0.375511 -0.67112,-1.92826 0.14935,-4.006479 0,0 1.26758,-0.40071 4.1257,1.552441 a 14.433529,14.433529 0 0 1 3.75327,-0.500887 c 1.267593,0 2.559753,0.175464 3.752973,0.500887 2.85843,-1.953151 4.12602,-1.552441 4.12602,-1.552441 0.82047,2.078219 0.29808,3.630968 0.14903,4.006479 0.96951,1.051554 1.54108,2.403642 1.54108,4.056262 0,5.809364 -3.50437,7.086164 -6.86,7.461984 0.54698,0.475689 1.01898,1.376978 1.01898,2.804351 0,2.02813 -0.0246,3.655859 -0.0246,4.156438 0,0.40071 0.27349,0.876706 1.01898,0.726439 5.96516,-2.003546 10.2651,-7.662338 10.2651,-14.347794 0.0246,-8.36358 -6.71095,-15.124015 -14.987573,-15.124015 z"
         fill="#24292f"
         id="path1324"
         style="stroke-width:0.307292" />
    </g>
    <rect
       style="fill:none;stroke:#844fba;stroke-width:1.49742;stroke-miterlimit:4;stroke-dasharray:none;stroke-opacity:1;stop-color:#000000"
       id="rect1399"
       width="259.39822"
       height="215.07642"
       x="6.1687775"
       y="-7.8861747" />
    <path
       style="fill:none;stroke:#000000;stroke-width:1.86576;stroke-linecap:butt;stroke-linejoin:miter;stroke-miterlimit:4;stroke-dasharray:none;stroke-opacity:1;marker-start:url(#Arrow2Sstart)"
       d="M 125.57418,-10.209398 V -27.855932"
       id="path1401" />
    <path
       style="fill:none;stroke:#000000;stroke-width:1.8063;stroke-linecap:butt;stroke-linejoin:miter;stroke-miterlimit:4;stroke-dasharray:none;stroke-opacity:1;marker-end:url(#Arrow2Send)"
       d="m -91.034631,107.97187 h 36.449709"
       id="path1779" />
    <path
       style="fill:none;stroke:#000000;stroke-width:1.94053;stroke-linecap:butt;stroke-linejoin:miter;stroke-miterlimit:4;stroke-dasharray:none;stroke-opacity:1;marker-end:url(#marker1893)"
       d="M -24.18617,107.974 H 33.448354"
       id="path1781" />
    <path
       style="fill:none;stroke:#000000;stroke-width:1.86576;stroke-linecap:butt;stroke-linejoin:miter;stroke-miterlimit:4;stroke-dasharray:none;stroke-opacity:1;marker-end:url(#marker2002)"
       d="M 64.050772,107.974 H 109.63047"
       id="path1998" />
    <path
       style="fill:none;stroke:#000000;stroke-width:1.86412;stroke-linecap:butt;stroke-linejoin:miter;stroke-miterlimit:4;stroke-dasharray:none;stroke-opacity:1;marker-end:url(#marker2088)"
       d="M 195.27889,107.95609 H 142.09404"
       id="path2084" />
    <path
       style="fill:none;stroke:#000000;stroke-width:1.89014;stroke-linecap:butt;stroke-linejoin:miter;stroke-miterlimit:4;stroke-dasharray:none;stroke-opacity:1;marker-start:url(#marker2510)"
       d="M 125.57418,141.17724 V 120.6638"
       id="path2506" />
    <g
       id="g2796"
       transform="matrix(0.93288208,0,0,0.93288208,-81.616298,-9.4950561)">
      <text
         xml:space="preserve"
         style="font-size:8.46667px;line-height:1.25;font-family:Bahnschrift;-inkscape-font-specification:Bahnschrift;stroke-width:0.264583"
         x="158.76004"
         y="54.353039"
         id="text2726"><tspan
           sodipodi:role="line"
           id="tspan2724"
           x="158.76004"
           y="54.353039"
           style="font-size:8.46667px;text-align:center;text-anchor:middle;stroke-width:0.264583">App Isolation:</tspan><tspan
           sodipodi:role="line"
           x="158.76004"
           y="64.936378"
           style="font-size:8.46667px;text-align:center;text-anchor:middle;stroke-width:0.264583"
           id="tspan2728">AWS VPC</tspan></text>
      <g
         fill="none"
         fill-rule="evenodd"
         id="g2760"
         transform="matrix(0.75,0,0,0.75,100.11051,41.670211)">
        <path
           d="M 0,0 H 40 V 40 H 0 Z"
           fill="url(#Arch_Amazon-Virtual-Private-Cloud_32_svg__a)"
           id="path2756"
           style="fill:url(#Arch_Amazon-Virtual-Private-Cloud_32_svg__a)" />
        <path
           d="m 30.971,21.03 -2.944,-1.263 v 10.489 c 2.546,-0.352 2.932,-2.968 2.948,-3.087 l -0.004,-6.14 z m -3.944,9.24 V 19.76 l -3.035,1.273 v 6.2 c 0.012,0.055 0.445,2.768 3.035,3.037 z m 0.306,-11.722 a 0.5,0.5 0 0 1 0.391,0 l 3.944,1.693 a 0.5,0.5 0 0 1 0.303,0.459 v 6.534 c -0.183,1.447 -1.357,4.063 -4.527,4.063 -3.075,0 -4.254,-2.612 -4.448,-3.994 L 22.992,20.7 c 0,-0.201 0.121,-0.383 0.306,-0.461 z m 5.65,0.637 -5.461,-2.406 -5.53,2.327 v 7.128 c -0.001,0.042 -0.054,2.868 1.657,4.623 0.917,0.94 2.194,1.419 3.795,1.419 1.602,0 2.887,-0.48 3.819,-1.422 1.735,-1.758 1.72,-4.585 1.72,-4.613 z M 31.98,31.55 c -1.127,1.144 -2.654,1.725 -4.536,1.725 -1.884,0 -3.404,-0.581 -4.517,-1.727 -2.005,-2.063 -1.939,-5.197 -1.935,-5.33 v -7.445 a 0.5,0.5 0 0 1 0.305,-0.461 l 6.035,-2.54 a 0.5,0.5 0 0 1 0.396,0.004 l 5.956,2.625 c 0.182,0.08 0.299,0.259 0.299,0.457 v 7.375 c 0.002,0.125 0.027,3.255 -2.003,5.317 z M 10.992,24.236 h 8 v 1 h -8 C 8.181,25.236 6.181,23.22 6.013,20.22 A 3.745,3.745 0 0 1 6,19.84 C 6,17.332 7.318,15.618 9.817,14.862 A 8.352,8.352 0 0 1 9.785,14.215 c 0,-2.916 1.577,-5.445 4.017,-6.445 3.298,-1.348 7.042,-0.895 9.106,1.104 a 8.232,8.232 0 0 1 1.76,2.485 c 0.609,-0.451 1.4,-0.663 2.349,-0.614 1.78,0.09 3.149,1.713 3.433,4.007 1.498,0.124 2.485,0.883 3.01,2.308 l -0.937,0.346 c -0.428,-1.157 -1.208,-1.673 -2.531,-1.673 a 0.5,0.5 0 0 1 -0.5,-0.47 c -0.138,-2.338 -1.406,-3.463 -2.526,-3.52 -0.948,-0.05 -1.645,0.22 -2.079,0.792 a 0.506,0.506 0 0 1 -0.473,0.193 0.503,0.503 0 0 1 -0.395,-0.323 7.378,7.378 0 0 0 -1.807,-2.814 c -1.788,-1.73 -5.09,-2.1 -8.031,-0.895 -2.063,0.845 -3.396,3.01 -3.396,5.519 0,0.273 0.035,0.696 0.066,0.959 a 0.498,0.498 0 0 1 -0.376,0.544 C 8.169,16.29 7,17.678 7,19.842 c 0,0.1 -0.001,0.2 0.009,0.302 0.141,2.495 1.703,4.093 3.983,4.093 z"
           fill="#ffffff"
           id="path2758" />
      </g>
    </g>
    <rect
       style="fill:none;stroke:#844fba;stroke-width:1.2626;stroke-miterlimit:4;stroke-dasharray:none;stroke-opacity:1;stop-color:#000000"
       id="rect2782"
       width="237.91965"
       height="166.71585"
       x="11.775003"
       y="29.378338" />
  </g>
</svg>
